<svg xmlns="http://www.w3.org/2000/svg" xmlns:xlink="http://www.w3.org/1999/xlink" viewBox="0 0 439.73 416.75"><defs><style>.cls-1,.cls-16,.cls-18,.cls-19,.cls-21,.cls-22,.cls-24,.cls-25,.cls-26,.cls-27{fill:none;}.cls-2{isolation:isolate;}.cls-3,.cls-6{fill:#9d73dc;}.cls-3,.cls-4{opacity:0.4;}.cls-5{clip-path:url(#clip-path);}.cls-7{fill:#fff;}.cls-8{fill:#e9e1f1;}.cls-9{fill:#1e0e36;}.cls-10{fill:#e33d83;}.cls-11{font-size:45px;fill:#2a2a72;font-family:SegoeUI-Bold, Segoe UI;font-weight:700;}.cls-12{fill:#febe00;}.cls-13{fill:#f3b890;}.cls-14{fill:#e39874;}.cls-15{fill:#514bc9;}.cls-16{stroke:#0e1a2d;}.cls-16,.cls-18,.cls-19,.cls-24,.cls-25,.cls-26,.cls-27{stroke-linecap:round;stroke-linejoin:round;}.cls-16,.cls-18{stroke-width:0.75px;}.cls-17{fill:#1f1921;}.cls-18{stroke:#301f3d;}.cls-19{stroke:#dd7e58;}.cls-19,.cls-27{stroke-width:0.5px;}.cls-20{mix-blend-mode:multiply;}.cls-21{stroke:#c6c6c6;}.cls-21,.cls-22{stroke-miterlimit:10;}.cls-22,.cls-27{stroke:#e33d83;}.cls-23{fill:#e08253;}.cls-24,.cls-25,.cls-26{stroke:#1f1921;}.cls-25{stroke-dasharray:5.14 5.14;}.cls-26{stroke-dasharray:5 5;}</style><clipPath id="clip-path" transform="translate(-778.64 -181.5)"><rect class="cls-1" x="775.6" y="391.25" width="392.15" height="178.21" transform="translate(1943.36 960.72) rotate(180)"/></clipPath></defs><title>todo</title><g class="cls-2"><g id="OBJECTS"><path class="cls-3" d="M1089.15,205.15V439.3h129.23V205.15Zm124.23,55.38h-57.11V210.15h57.11Zm-62.11,64.1v54.1h-57.11v-54.1Zm-57.11-5v-54.1h57.11v54.1Zm62.11,5h57.11v54.1h-57.11Zm0-5v-54.1h57.11v54.1Zm-5-109.47v50.38h-57.11V210.15Zm-57.11,173.57h57.11V434.3h-57.11Zm62.11,50.59V383.72h57.11V434.3Z" transform="translate(-778.64 -181.5)"/><g class="cls-4"><g class="cls-5"><path class="cls-6" d="M1146.65,427.43a5.19,5.19,0,0,0-1.72.26c-3.66,1-7.32,2-10.93,3.08a44.86,44.86,0,0,0-11.9,5.28q1.09-1.37,2.25-2.69c.66-.75,1.35-1.47,2-2.19a76,76,0,0,1,11.52-4.63c4.38-1.35,8.91-2.85,11-7.39,2.25-5-3-6.85-7-5.18-7.51,3.13-13,9.62-17.09,16.53q-2.48,2.64-4.7,5.52l2.14-4.1a62.27,62.27,0,0,0,4.3-9.51c.7-2.15,2.58-7.51,1-9.55a2.56,2.56,0,0,0-2.64-.77,5.7,5.7,0,0,0-2.44,1.53c-3.4,3.24-5.17,7.89-5.77,12.54a36,36,0,0,0,.74,13.53,74.91,74.91,0,0,0-7.57,14.39l.47-1.76a62.2,62.2,0,0,0,2.11-10.22c.21-2.25.87-7.89-1.09-9.54a2.56,2.56,0,0,0-2.75-.17,5.7,5.7,0,0,0-2,2c-2.6,3.9-3.31,8.83-2.87,13.5a36,36,0,0,0,3.79,13.23,73.39,73.39,0,0,0-1.84,8.21,70.17,70.17,0,0,0-.9,11.4l-.62-4.2a62.26,62.26,0,0,0-2.11-10.22c-.7-2.14-2.33-7.59-4.78-8.33a2.56,2.56,0,0,0-2.59.93,5.7,5.7,0,0,0-1.08,2.67c-.84,4.61.46,9.42,2.71,13.53a36,36,0,0,0,8.66,10.6.84.84,0,0,0,.11.32c-.07.43-.13.85-.17,1.28,1.24-1.06,4-1.1,5.57-1.91a29.91,29.91,0,0,0,6.3-4.33,27.74,27.74,0,0,0,8.2-12.12c.36-1.21,1.07-3.92-.09-4.95-1.33-1.19-3.88.67-5.09,1.37A31.09,31.09,0,0,0,1106.39,481a70.91,70.91,0,0,1,2.85-20c1.51,0,3.42.66,4.85.57a29.92,29.92,0,0,0,7.5-1.48,27.74,27.74,0,0,0,12.32-7.88c.81-1,2.54-3.17,1.88-4.58-.76-1.62-3.83-.92-5.22-.76a30.57,30.57,0,0,0-20.45,11.34,73.08,73.08,0,0,1,9-18.08c2,.39,5.51,1.2,6.06,1.25a33.23,33.23,0,0,0,8.17-.21,29.55,29.55,0,0,0,12.61-5.18,7.55,7.55,0,0,0,3.32-4.34C1149.67,429.78,1148.51,427.57,1146.65,427.43Z" transform="translate(-778.64 -181.5)"/><path class="cls-6" d="M812.34,441.17c9.91,20.54,26.8,38,45.64,51,8.62,5.93,18.07,11,27.77,12.36a3.28,3.28,0,0,0,2.25-.23c1-.69.83-2.33.54-3.69-2.31-10.8-4.1-23.05-8.6-33.47s-12.12-20-20.52-27.63c-15.46-14-34.6-22.6-53.61-28.42C804.54,420.82,807.66,431.46,812.34,441.17Z" transform="translate(-778.64 -181.5)"/><path class="cls-7" d="M810.19,418a.71.71,0,0,1,1,0l28.68,31.21L836,426.53a.71.71,0,0,1,1.41-.24l4.29,24.92,32.82,35.72-5.61-29.78a.73.73,0,0,1,.57-.83.71.71,0,0,1,.83.57l6,32,7.39,8a.71.71,0,0,1-1,1L854.69,467.5,828,456.71a.71.71,0,0,1,.53-1.32l23.9,9.67-42.3-46A.71.71,0,0,1,810.19,418Z" transform="translate(-778.64 -181.5)"/><path class="cls-6" d="M786.25,500.43c1.36,1.88,2.72,3.76,3.94,5.74,2.13,3.48,3,6.43,1.45,10.13-3.24,8-3.29,19.09,5.17,24.2,7.19,4.35,17.6,2.31,18,13.62.11,2.92-.41,5.83-.45,8.75-.13,10.61,6.52,20.72,15.82,25.84s20.79,5.5,30.85,2.15A51.75,51.75,0,0,0,878,581.13c3.46-2.92,7.89-6.14,10.83-9.57,7.47-8.7,9.1-26.47,6-37-2.77-9.44-10.75-17.79-20.54-18.78-5.77-.58-12.45,1.07-16.76-2.79-2.64-2.37-3.35-5.85-3.77-9.18a14.53,14.53,0,0,0-4.74-9.34c-6.17-6.18-14-7.15-22.2-5.08-8.42,2.14-11-4.63-15.74-10.73-4-5.15-10-9.07-16.47-9.41s-13.37,3.54-15.34,9.76c-1.53,4.83,0,10.15,2.43,14.58A69.5,69.5,0,0,0,786.25,500.43Z" transform="translate(-778.64 -181.5)"/><path class="cls-8" d="M783.08,481.08a.64.64,0,0,1,.88-.2,289.66,289.66,0,0,1,51.78,42.39,82.79,82.79,0,0,0-6.14-24.08.64.64,0,0,1,1.17-.5,84.08,84.08,0,0,1,6.37,25.77.63.63,0,0,1,0,.22,346.81,346.81,0,0,1,30.79,36.77l0,0q1.26,1.73,2.49,3.47a110.6,110.6,0,0,0-.35-35.81.64.64,0,0,1,1.26-.22,111.91,111.91,0,0,1,.15,37.54q3.28,4.67,6.45,9.48a.64.64,0,0,1-1.07.7q-4.75-7.24-9.78-14.16a20.38,20.38,0,0,1-2.6.17,48.9,48.9,0,0,1-7.36-.75l-1.77-.27c-11.29-1.63-22.68-3.65-33.84-6a.64.64,0,0,1,.27-1.25c11.13,2.37,22.49,4.39,33.76,6l1.78.27a38,38,0,0,0,8.9.66,342,342,0,0,0-35.21-41,213.51,213.51,0,0,1-29.43-6.67.64.64,0,1,1,.36-1.22,215,215,0,0,0,27.5,6.35A284.48,284.48,0,0,0,783.28,482,.64.64,0,0,1,783.08,481.08Z" transform="translate(-778.64 -181.5)"/><path class="cls-6" d="M1157.1,515c-1,1.45-2.1,2.9-3,4.43-1.65,2.69-2.28,5-1.12,7.82,2.5,6.17,2.54,14.73-4,18.67-5.55,3.35-13.58,1.78-13.91,10.51-.08,2.25.32,4.5.35,6.75.1,8.18-5,16-12.2,19.94s-16,4.24-23.81,1.66a39.93,39.93,0,0,1-13.08-7.51c-2.67-2.26-6.09-4.74-8.36-7.39-5.76-6.72-7-20.43-4.63-28.57,2.14-7.29,8.29-13.72,15.85-14.49,4.45-.45,9.6.83,12.94-2.16,2-1.83,2.59-4.51,2.91-7.09a11.21,11.21,0,0,1,3.66-7.21c4.76-4.77,10.84-5.52,17.13-3.92,6.5,1.65,8.48-3.57,12.14-8.28,3.09-4,7.68-7,12.71-7.26s10.32,2.73,11.84,7.53c1.18,3.73,0,7.83-1.88,11.25A53.61,53.61,0,0,1,1157.1,515Z" transform="translate(-778.64 -181.5)"/><path class="cls-7" d="M1086.35,573.27q2.44-3.71,5-7.31a86.35,86.35,0,0,1,.12-29,.49.49,0,0,1,1,.17,85.35,85.35,0,0,0-.26,27.62q1-1.34,1.92-2.66l0,0a267.63,267.63,0,0,1,23.76-28.37.48.48,0,0,1,0-.17,64.88,64.88,0,0,1,4.92-19.89.49.49,0,0,1,.91.38,63.88,63.88,0,0,0-4.74,18.58,223.51,223.51,0,0,1,40-32.71.49.49,0,1,1,.53.83,219.5,219.5,0,0,0-35.62,28.41,165.92,165.92,0,0,0,21.22-4.9.49.49,0,0,1,.28.94,164.74,164.74,0,0,1-22.71,5.15A263.88,263.88,0,0,0,1095.39,562a29.31,29.31,0,0,0,6.87-.51l1.38-.21c8.69-1.25,17.46-2.81,26.05-4.64a.49.49,0,1,1,.2,1c-8.61,1.83-17.4,3.39-26.11,4.65l-1.37.21a37.71,37.71,0,0,1-5.68.58,15.76,15.76,0,0,1-2-.13q-3.88,5.34-7.55,10.92a.49.49,0,1,1-.82-.54Z" transform="translate(-778.64 -181.5)"/></g></g><g class="cls-4"><rect class="cls-6" x="16.08" y="173.01" width="43.26" height="17.14"/><rect class="cls-6" x="245.15" width="43.26" height="17.14"/><rect class="cls-6" x="34.71" width="43.26" height="17.14"/><rect class="cls-6" x="404.42" y="279.13" width="29.28" height="17.14"/><rect class="cls-6" x="75.83" y="106.45" width="14.88" height="17.14"/><rect class="cls-6" x="170.51" y="17.14" width="14.88" height="17.14"/></g><rect class="cls-6" x="98.77" y="48.47" width="241.17" height="341.47"/><rect class="cls-9" x="110.84" y="65.89" width="201.72" height="262.99"/><polygon class="cls-7" points="337.28 328.88 135.56 328.88 125.59 65.89 327.31 65.89 337.28 328.88"/><path class="cls-10" d="M934.49,340.83a7.69,7.69,0,1,1,7.69-7.69A7.7,7.7,0,0,1,934.49,340.83Zm0-13.84a6.15,6.15,0,1,0,6.15,6.15A6.15,6.15,0,0,0,934.49,327Z" transform="translate(-778.64 -181.5)"/><path class="cls-10" d="M1092.59,340.83H952.73a.77.77,0,0,1,0-1.54h139.87a.77.77,0,0,1,0,1.54Z" transform="translate(-778.64 -181.5)"/><path class="cls-10" d="M934.49,374.22a7.69,7.69,0,1,1,7.69-7.69A7.7,7.7,0,0,1,934.49,374.22Zm0-13.84a6.15,6.15,0,1,0,6.15,6.15A6.15,6.15,0,0,0,934.49,360.39Z" transform="translate(-778.64 -181.5)"/><path class="cls-10" d="M1092.59,374.22H952.73a.77.77,0,1,1,0-1.54h139.87a.77.77,0,1,1,0,1.54Z" transform="translate(-778.64 -181.5)"/><path class="cls-10" d="M934.49,407.62a7.69,7.69,0,1,1,7.69-7.69A7.7,7.7,0,0,1,934.49,407.62Zm0-13.84a6.15,6.15,0,1,0,6.15,6.15A6.15,6.15,0,0,0,934.49,393.78Z" transform="translate(-778.64 -181.5)"/><path class="cls-10" d="M1092.59,407.62H952.73a.77.77,0,0,1,0-1.54h139.87a.77.77,0,1,1,0,1.54Z" transform="translate(-778.64 -181.5)"/><path class="cls-10" d="M934.49,441a7.69,7.69,0,1,1,7.69-7.69A7.7,7.7,0,0,1,934.49,441Zm0-13.84a6.15,6.15,0,1,0,6.15,6.15A6.15,6.15,0,0,0,934.49,427.18Z" transform="translate(-778.64 -181.5)"/><path class="cls-10" d="M1092.59,441H952.73a.77.77,0,1,1,0-1.54h139.87a.77.77,0,1,1,0,1.54Z" transform="translate(-778.64 -181.5)"/><path class="cls-10" d="M934.49,474.41a7.69,7.69,0,1,1,7.69-7.69A7.7,7.7,0,0,1,934.49,474.41Zm0-13.84a6.15,6.15,0,1,0,6.15,6.15A6.15,6.15,0,0,0,934.49,460.57Z" transform="translate(-778.64 -181.5)"/><path class="cls-10" d="M1092.59,474.41H952.73a.77.77,0,0,1,0-1.54h139.87a.77.77,0,0,1,0,1.54Z" transform="translate(-778.64 -181.5)"/><path class="cls-9" d="M913.83,252.75h0a1.88,1.88,0,0,1,.67-2.44A16.64,16.64,0,0,0,922,238.09a15.73,15.73,0,0,0-.53-6.22,16.64,16.64,0,0,0-30-4.48,9.17,9.17,0,0,0-1.52,3h-4a20.39,20.39,0,0,1,38.67-.89,20,20,0,0,1,.88,10.45,20.31,20.31,0,0,1-9,13.54A1.88,1.88,0,0,1,913.83,252.75Z" transform="translate(-778.64 -181.5)"/><path class="cls-9" d="M942,252.75h0a1.88,1.88,0,0,1,.67-2.44,16.64,16.64,0,0,0,7.47-12.22,15.73,15.73,0,0,0-.53-6.22,16.64,16.64,0,0,0-30-4.48,9.17,9.17,0,0,0-1.52,3h-4a20.39,20.39,0,0,1,38.67-.89,20,20,0,0,1,.88,10.45,20.31,20.31,0,0,1-9,13.54A1.88,1.88,0,0,1,942,252.75Z" transform="translate(-778.64 -181.5)"/><path class="cls-9" d="M970.14,252.75h0a1.88,1.88,0,0,1,.67-2.44,16.64,16.64,0,0,0,7.47-12.22,15.72,15.72,0,0,0-.53-6.22,16.64,16.64,0,0,0-30-4.48,9.16,9.16,0,0,0-1.52,3h-4a20.39,20.39,0,0,1,38.67-.89,20,20,0,0,1,.88,10.45,20.31,20.31,0,0,1-9,13.54A1.88,1.88,0,0,1,970.14,252.75Z" transform="translate(-778.64 -181.5)"/><path class="cls-9" d="M998.29,252.75h0a1.88,1.88,0,0,1,.67-2.44,16.64,16.64,0,0,0,7.47-12.22,15.73,15.73,0,0,0-.53-6.22,16.64,16.64,0,0,0-30-4.48,9.17,9.17,0,0,0-1.52,3h-4a20.39,20.39,0,0,1,38.67-.89,20,20,0,0,1,.88,10.45,20.31,20.31,0,0,1-9,13.54A1.88,1.88,0,0,1,998.29,252.75Z" transform="translate(-778.64 -181.5)"/><path class="cls-9" d="M1026.45,252.75h0a1.88,1.88,0,0,1,.67-2.44,16.64,16.64,0,0,0,7.47-12.22,15.73,15.73,0,0,0-.53-6.22,16.64,16.64,0,0,0-30-4.48,9.16,9.16,0,0,0-1.52,3h-4a20.39,20.39,0,0,1,38.67-.89,20,20,0,0,1,.88,10.45,20.31,20.31,0,0,1-9,13.54A1.88,1.88,0,0,1,1026.45,252.75Z" transform="translate(-778.64 -181.5)"/><path class="cls-9" d="M1054.6,252.75h0a1.88,1.88,0,0,1,.67-2.44,16.64,16.64,0,0,0,7.47-12.22,15.73,15.73,0,0,0-.53-6.22,16.64,16.64,0,0,0-30-4.48,9.16,9.16,0,0,0-1.52,3h-4a20.39,20.39,0,0,1,38.67-.89,20,20,0,0,1,.88,10.45,20.31,20.31,0,0,1-9,13.54A1.88,1.88,0,0,1,1054.6,252.75Z" transform="translate(-778.64 -181.5)"/><path class="cls-9" d="M1082.75,252.75h0a1.88,1.88,0,0,1,.67-2.44,16.64,16.64,0,0,0,7.47-12.22,15.73,15.73,0,0,0-.53-6.22,16.64,16.64,0,0,0-30-4.48,9.17,9.17,0,0,0-1.52,3h-4a20.39,20.39,0,0,1,38.67-.89,20,20,0,0,1,.88,10.45,20.31,20.31,0,0,1-9,13.54A1.88,1.88,0,0,1,1082.75,252.75Z" transform="translate(-778.64 -181.5)"/><text class="cls-11" transform="translate(176.53 122.93)">2023</text><rect class="cls-12" x="0.78" y="388.43" width="437.15" height="3"/><path class="cls-13" d="M1110.68,344.65c-1.42,3.28-3.33,6.33-4.4,9.8a38.28,38.28,0,0,0-1.66,12.19c.07,3.08-.19,7.24,4.29,6.2a10.89,10.89,0,0,0,4.26-2.49,141.34,141.34,0,0,0,26.22-28.44c3.23-4.65,8-10.5,9.38-16.07s4.43-24.74-5.38-23.71a15.81,15.81,0,0,0-7.26,3c-5.68,4-9.71,9.83-13.41,15.68q-3.78,6-7.28,12.1a34,34,0,0,0-3,5.77c-.46,1.36-.57,2.8-1.05,4.16C1111.17,343.47,1110.93,344.06,1110.68,344.65Z" transform="translate(-778.64 -181.5)"/><polygon class="cls-9" points="347.97 103.93 303.19 385.12 286.36 392.5 274.83 380.6 319.62 99.42 347.97 103.93"/><path class="cls-13" d="M1081.83,566.62l-11.27,19.71-6.22,10.87a2.09,2.09,0,0,1-3.85-.58c-.76-3.33-1.79-7.9-2.83-12.63-2.28-10.39-4.58-22.3-4.19-21.9C1067,576,1081.83,566.62,1081.83,566.62Z" transform="translate(-778.64 -181.5)"/><path class="cls-6" d="M1126.62,285.43l-6.72,42.17c-.24,1.5-7.26,4.7-15.08,3.45s-13.51-6.47-13.27-8l6.72-42.17Z" transform="translate(-778.64 -181.5)"/><path class="cls-10" d="M1070.56,586.33l-6.22,10.87a2.09,2.09,0,0,1-3.85-.58c-.76-3.33-1.79-7.9-2.83-12.63,1.34,3,4,3.63,6.34,4C1066.49,588.4,1069,588,1070.56,586.33Z" transform="translate(-778.64 -181.5)"/><ellipse class="cls-9" cx="1112.47" cy="282.98" rx="2.76" ry="14.36" transform="translate(-120.61 1155.59) rotate(-80.95)"/><path class="cls-10" d="M1118.57,336l-.59,3.71a42.46,42.46,0,0,1-14.38.26,37.77,37.77,0,0,1-13.91-5.15l.59-3.71C1095.73,334.82,1105.15,338.81,1118.57,336Z" transform="translate(-778.64 -181.5)"/><path class="cls-13" d="M1140.25,559.12c-1.79-4-3.42-7.5-3.66-8.25-1.47-4.63-2.18-9.45-3.55-14.1-1.31-4.46-3.59-8.93-5.5-13.21-.14-.31-.32-.66-.66-.74a1.14,1.14,0,0,0-.71.15l-8.82,4c-.51.23-7.13,3.29-6.93,3.95,2.24,8,17.45,36.78,20.95,44a1.52,1.52,0,0,0,.7.83,1.4,1.4,0,0,0,1-.12c2.2-.84,4.39-1.86,6.64-2.55,1.85-.57,3.74-.58,5.57-1.34C1145.79,571.52,1142.85,564.88,1140.25,559.12Z" transform="translate(-778.64 -181.5)"/><path class="cls-9" d="M1115.88,598c-.78.26-1.51.4-1.71.1a18.81,18.81,0,0,1-2.11-4.14,2.58,2.58,0,0,1-.21-1.09,2.87,2.87,0,0,1,1-1.62c1.92-2,3.69-4.1,5.4-6.22a34.07,34.07,0,0,0,4.59-7,17.34,17.34,0,0,0,1.8-7c0-2.52-2.18-4.54-2.07-7.13a2.36,2.36,0,0,1,.72-1.74c1.14-1,3.24.58,4,1.44a5.74,5.74,0,0,0,2,1.81,6.73,6.73,0,0,0,5.62-.1,12.24,12.24,0,0,0,5.37-6c-.15.32,1.38,2.4,1.6,2.74q.94,1.52,2,3a53,53,0,0,1,3.5,5.29c1.84,3.4,1.92,3.56,4,6.85.11.17-7.28,5-9.82,6.61l-.82.53c-6.32,4-13,7.57-19.52,11.17-1,.56-2,1.12-3.07,1.67A16.65,16.65,0,0,1,1115.88,598Z" transform="translate(-778.64 -181.5)"/><path class="cls-13" d="M1194.82,576.09c-.25-4.34-.51-8.23-.46-9,.29-4.85,1.35-9.6,1.74-14.44.37-4.64-.15-9.62-.4-14.3a.86.86,0,0,0-1.06-1l-9.67.59c-.56,0-7.83.51-7.88,1.2-.79,8.29,3.11,40.59,3.79,48.57a1.52,1.52,0,0,0,.35,1,1.4,1.4,0,0,0,1,.25c2.35,0,4.76-.16,7.11,0,1.93.13,3.7.8,5.68.74C1195.55,589.64,1195.19,582.39,1194.82,576.09Z" transform="translate(-778.64 -181.5)"/><path class="cls-10" d="M1166.22,235.84a15,15,0,0,0-8.51,4.71c-3.22,3.92-3.46,10.38-3.23,15.25.28,6.13,1.85,11.78,6.11,16.37,2.08,2.24,4.5,4.18,6.23,6.71a15.77,15.77,0,0,1,2.31,12.17c-.45,2-1.29,3.87-1.58,5.88-.65,4.47,1.51,9,4.57,12.27,2.83,3,6.45,5.33,8.89,8.72,3.41,4.74,4,10.91,4.54,16.76L1209,326c.81-.3,1.73-.71,2-1.56a2.89,2.89,0,0,0-.13-1.49c-.86-3.22-1.76-6.51-3.56-9.31s-4.54-5.13-5.35-8.38c-1-3.93,1.12-7.88,1.86-11.86a18,18,0,0,0-4.32-15.14c-2.61-2.86-6.17-4.83-8.25-8.11-3.36-5.28-2-12.21-3.29-18.34C1185.87,242.48,1175.78,233.86,1166.22,235.84Z" transform="translate(-778.64 -181.5)"/><path class="cls-13" d="M1137.2,316.76c.7,2.23.3,4,.68,6.28a55.26,55.26,0,0,0,9,22.15.69.69,0,0,0,.33.3c.29.09.54-.22.71-.48a24,24,0,0,1,1.64-2.33,1.41,1.41,0,0,0,1.4.45,2.09,2.09,0,0,0,.94-.83c1.23-1.62,2.46-3.25,3.71-4.86l-.14-.16a6.64,6.64,0,0,0,.7-.56,38.42,38.42,0,0,0,2.77-3.47,93.31,93.31,0,0,1,12.28-12.72c3.81-3.18,8.25-4.92,12.19-7.73a2.77,2.77,0,0,0,1.21-1.48c-1.34-.81-2.64-1.68-3.94-2.53a12.11,12.11,0,0,1-2.6-1.65l-.26-.16a.41.41,0,0,1-.21-.3.49.49,0,0,1-.09-.17c-.85-.29-1.57-.52-2-.69-3-1.19-6.62-2.7-8.09-5.88a12.8,12.8,0,0,1-.92-3c-.16-.81-.27-1.64-.35-2.46-.38-3.52-.23-7-.28-10.52,0-.7,0-1.4-.05-2.11a8.83,8.83,0,0,1-2.5,0l-.64-.05c-1.38-.1-2.82.51-4.17.71-2.94.44-5.92-.06-8.9-.16h-.81c0,.1,0,.2,0,.3,0,.57,0,1.14,0,1.7.05,1.7.11,3.41.13,5.11s0,3.21,0,4.82c0,.67,0,1.33-.09,2a1.62,1.62,0,0,1,0,.38v.42c0,.11,0,.23,0,.34s0,.43,0,.65a8.15,8.15,0,0,1-1,3.64,3.2,3.2,0,0,1-.44.94,16.21,16.21,0,0,1-2.82,2.65c-1.61,1.33-4.19,2.47-5.74,4.09a5.28,5.28,0,0,0-.92,1.25c-1,2-.72,4.5-.19,6.71Z" transform="translate(-778.64 -181.5)"/><path class="cls-14" d="M1148.82,298.39a14.34,14.34,0,0,0,10,2.05,16.8,16.8,0,0,0,7.72-3.5c-.16-.81-.27-1.64-.35-2.46-.38-3.52-.23-7-.28-10.52-.35-.35-.71-.68-1.09-1a15.23,15.23,0,0,0-1.47-1.09l-.58-.35h0a8.75,8.75,0,0,0-2.13-.91,11.79,11.79,0,0,0-2.95-.33,16.32,16.32,0,0,0-8,1.89h0l-.33.19-.47.29c0,.57,0,1.14,0,1.7.05,1.7.11,3.41.13,5.11s0,3.21,0,4.82c0,.67,0,1.33-.09,2a1.62,1.62,0,0,1,0,.38v.42c0,.11,0,.23,0,.34s0,.43,0,.65S1148.83,298.29,1148.82,298.39Z" transform="translate(-778.64 -181.5)"/><path class="cls-15" d="M1178.88,361.68c.47-3,.89-6,1.42-8.91a149,149,0,0,1,5.8-23.25,17.58,17.58,0,0,0,1-3.62c.45-3.8-1.77-7.94-2.63-11.62a73.38,73.38,0,0,1-1.17-9,1.08,1.08,0,0,0-.8-1.1,69.16,69.16,0,0,0-9.43-3.64c-1.35-.41-3.11-.56-4.25-1.38s-1.23-1.9-1.69-3.2c-.26-.74-.66-.69-1.43-.7-.93,0-1.85.12-2.78.12h-5.6c-.68,0-6.4.06-9.26,0a19.57,19.57,0,0,1-1.32,5.42,8.44,8.44,0,0,1-1.85,2.48c-1.13,1.07-2.65,1.85-3.69,3-.82.92-1.43,2.1-2.21,3.09a36.86,36.86,0,0,0-5.42,8.36c-2,4.79-4.92,8.94-6.3,14-1.54,5.64.3,11.58,1.72,17.25a3.39,3.39,0,0,1,.41,1.08c.23,1.14.42,2.28.6,3.43.09.46.19.91.28,1.37q.64,3.43,1,6.87a123.86,123.86,0,0,1,.83,12.43,186.74,186.74,0,0,1,1.18,21.81,3.64,3.64,0,0,1-.05.49l26.19.19,14.53.11c4.27,0,8.39.16,12.65.56a11.36,11.36,0,0,0-1.35-5.17,80.2,80.2,0,0,1-4.81-14.17c-1-4.29-2.87-8.81-2.07-13.29C1178.56,363.66,1178.72,362.67,1178.88,361.68Z" transform="translate(-778.64 -181.5)"/><path class="cls-16" d="M1139.9,307.42" transform="translate(-778.64 -181.5)"/><path class="cls-13" d="M1186.93,358.23a206.16,206.16,0,0,1-7.43-24.86c-1.14-4.79-2.12-9.6-3.12-14.42-.35-1.69-1.17-3.25-1.13-5a15.08,15.08,0,0,1,1.71-6.15c.77-1.53,2.32-4.39,4.35-4.17a5.22,5.22,0,0,1,2.59,1.3c7.69,6.17,10.43,16.58,12.93,25.69,2.75,10,5.78,21.91-.31,31.41-1.22,1.9-3.36,3.79-5.48,3-1.49-.53-2.25-2.14-2.84-3.6Q1187.54,359.86,1186.93,358.23Z" transform="translate(-778.64 -181.5)"/><path class="cls-13" d="M1185.27,392.1a80.2,80.2,0,0,1-4.81-14.17c-1-4.29-2.87-8.81-2.07-13.29.18-1,.34-2,.5-3h-47.59a123.86,123.86,0,0,1,.83,12.43c.54,5.13.94,10.23,1.11,15.36a4.32,4.32,0,0,1,1,1.72,4.43,4.43,0,0,1,.49,2.23v.13a5.84,5.84,0,0,1-.75,2.87l25.43.19,14.53.11c4.27,0,8.39.16,12.65.56A11.36,11.36,0,0,0,1185.27,392.1Z" transform="translate(-778.64 -181.5)"/><path class="cls-10" d="M1153.56,401.86a171.08,171.08,0,0,1-21.66-.32c-.72-7.42,0-15.29-.06-22.77,3.74-.69,7.83-.47,11.63-.66l12.09-.61,14.61-.73c2.71-.14,5.47-.53,8.18-.53a10.13,10.13,0,0,0,1.74-.15s1.11,4.16,1.22,4.54c.4,1.39,1.22,1.7,2.23,2.72,3.72,3.77,5.16,9.82,6.49,14.8a121.52,121.52,0,0,1,2.94,15.47c.35,2.61.64,5.22.92,7.84.14,1.34.36,2.7.42,4.05,0,.6-.4,2.67-.07,3.06a5.51,5.51,0,0,1-.94-2.12,31.29,31.29,0,0,0-5.38-11,30.86,30.86,0,0,0-6.4-5.83,53.25,53.25,0,0,0-13.17-6.82,17.07,17.07,0,0,0-6.72-1.41Q1157.6,401.66,1153.56,401.86Z" transform="translate(-778.64 -181.5)"/><path class="cls-15" d="M1165.11,248.37c1.28.27,3.39.86,4.65.31,1.05-.46,1.93-2.1,2.44-3.1,1.57-3.05-3.7-5.86-6-6.37-1.53-.34-4-.54-5.3.59s-2.65,4-1.83,5.75C1160,247.51,1163.31,248,1165.11,248.37Z" transform="translate(-778.64 -181.5)"/><path class="cls-10" d="M1151.05,288.89a11.85,11.85,0,0,1-4.09-2.74,13.8,13.8,0,0,1-2.6-4.64,32.5,32.5,0,0,1-1.71-6.86c-.31-2.28-.35-4.73.77-6.72a9.48,9.48,0,0,1,2.31-2.6,19.5,19.5,0,0,1,23.68-.94,20.57,20.57,0,0,1,3.43,3,6.35,6.35,0,0,0,1.32,1.27,9.08,9.08,0,0,0,3.66,1.64c.1,0,.22,0,.27.12a.31.31,0,0,1,0,.18,13.15,13.15,0,0,1-1.81,5.08c-.85,1.5-1.66,3-2.53,4.47a28.09,28.09,0,0,1-4.74,6.35C1164.38,290.88,1156.79,291.37,1151.05,288.89Z" transform="translate(-778.64 -181.5)"/><path class="cls-14" d="M1142.09,276.13a3.62,3.62,0,0,0,1.83.42.73.73,0,0,0,.46-.14.82.82,0,0,0,.21-.49,12.66,12.66,0,0,0-.6-6c-.49-1.62-.94-2.92-2.58-3.61a2.24,2.24,0,0,0-3.31,1.69,9,9,0,0,0,1.37,5.5A7,7,0,0,0,1142.09,276.13Z" transform="translate(-778.64 -181.5)"/><path class="cls-14" d="M1142.8,270.92a.78.78,0,0,0-.57-.54,1.68,1.68,0,0,0-.61,0,2.55,2.55,0,0,0-.91.2,1.23,1.23,0,0,0-.3.21,4,4,0,0,1-.07-1.39c0-.11.15-1.08.86-1.06a.28.28,0,0,0,.28-.28.29.29,0,0,0-.28-.29c-.83,0-1.32.77-1.42,1.55a4.8,4.8,0,0,0,1.81,4.37.28.28,0,0,0,.39-.06.29.29,0,0,0-.06-.4,4.08,4.08,0,0,1-1.3-1.71h0a.54.54,0,0,1,.32-.4,2.09,2.09,0,0,1,.72-.15,1.23,1.23,0,0,1,.41,0,.23.23,0,0,1,.17.13.28.28,0,1,0,.54-.14Z" transform="translate(-778.64 -181.5)"/><path class="cls-13" d="M1159.19,247a25,25,0,0,1,7.64,3.39,22.92,22.92,0,0,1,3.37,2.73c.88.86,2.16,1.42,2.32,2.68a64.09,64.09,0,0,1,.1,13.12,66.5,66.5,0,0,1-1.78,11.24c-.86,3.32-3.63,6.72-5.84,9.23-3.21,3.65-8.31,6.58-13.27,4.59a10.77,10.77,0,0,1-3.78-2.85,29.36,29.36,0,0,1-7.17-16.1c-.19-2.25-.79-4.25-.77-6.53,0-2.52-.24-4.74.38-7.23a21.91,21.91,0,0,1,3.25-7.22C1147.09,249,1152.75,245.32,1159.19,247Z" transform="translate(-778.64 -181.5)"/><path class="cls-10" d="M1135.45,265.3a37.9,37.9,0,0,1,2.39-10.37,21.57,21.57,0,0,1,7.82-10.07c5-3.3,13.33-4,17.8.72a.48.48,0,0,0,.31.19.46.46,0,0,0,.22-.08,6.72,6.72,0,0,1,6.88.62c7.83,5.05,9.7,17,7.06,25.48a3.69,3.69,0,0,1-1.31,2.13c-.45-1.76-1.93-2.28-3.45-2.79a6.09,6.09,0,0,1-3.38-2.07c-.93-1.42-.55-3.3-.75-5-.23-1.94-1.42-3.35-2.28-5-.49-1-1-1.91-1.41-2.92s-.38-2.47-.93-3.19c-1.24-1.61-4.39-1.17-5.91-.45a11.74,11.74,0,0,0-4.43,4.18c-1.17,1.7-2.13,3.55-3.37,5.19a18.46,18.46,0,0,1-7.53,5.85c-1.44.61-8.1,3.06-7.91,0Q1135.33,266.48,1135.45,265.3Z" transform="translate(-778.64 -181.5)"/><path class="cls-14" d="M1151.62,276.56c.87,0,1.74-.14,2.6-.23a2.26,2.26,0,0,1-1.89-1.25c-.87-1.59-.56-3.73-.21-5.41l-1.69,3.27a5.9,5.9,0,0,0-.84,2.44C1149.63,276.47,1150.82,276.57,1151.62,276.56Z" transform="translate(-778.64 -181.5)"/><path class="cls-17" d="M1161.63,265.67a3.26,3.26,0,0,1,.4,3.5,2.5,2.5,0,0,1-.9,1.14,1.69,1.69,0,0,1-1.5.2,1.76,1.76,0,0,1-.67-.52,4,4,0,0,1-.28-4.17A1.81,1.81,0,0,1,1161.63,265.67Z" transform="translate(-778.64 -181.5)"/><path class="cls-17" d="M1143.91,265.93a1.81,1.81,0,0,1,2.94-.15,3.26,3.26,0,0,1,.4,3.5,2.5,2.5,0,0,1-.9,1.14,1.69,1.69,0,0,1-1.5.2,1.75,1.75,0,0,1-.67-.52A4,4,0,0,1,1143.91,265.93Z" transform="translate(-778.64 -181.5)"/><path class="cls-17" d="M1156.31,261.93a.68.68,0,0,1,.25-1.09,6,6,0,0,1,1.74-.27,6.27,6.27,0,0,1,5.81,2,1.13,1.13,0,0,1,.34.5.2.2,0,0,1,0,.11.16.16,0,0,1-.08.09.89.89,0,0,1-.61,0c-1.08-.22-2.07-.65-3.16-.8-.78-.11-1.57-.16-2.36-.22a6.17,6.17,0,0,0-1.09,0A.87.87,0,0,1,1156.31,261.93Z" transform="translate(-778.64 -181.5)"/><path class="cls-17" d="M1148.06,261.92a.68.68,0,0,0-.33-1.07,6,6,0,0,0-1.75-.13,7.1,7.1,0,0,0-3.85.84,7.22,7.22,0,0,0-1.81,1.59,1.14,1.14,0,0,0-.31.53.2.2,0,0,0,0,.11.16.16,0,0,0,.09.08.89.89,0,0,0,.61,0c1.06-.31,2-.81,3.09-1.05.77-.17,1.56-.28,2.34-.41a6.18,6.18,0,0,1,1.08-.13A.88.88,0,0,0,1148.06,261.92Z" transform="translate(-778.64 -181.5)"/><path class="cls-13" d="M1173.75,277.56a3.78,3.78,0,0,1-1.89.57.77.77,0,0,1-.5-.12.88.88,0,0,1-.26-.5,13.31,13.31,0,0,1,.14-6.36c.38-1.73.75-3.13,2.42-4a2.38,2.38,0,0,1,3.62,1.55,9.37,9.37,0,0,1-1,5.87A7.21,7.21,0,0,1,1173.75,277.56Z" transform="translate(-778.64 -181.5)"/><path class="cls-14" d="M1172.59,272.13a.81.81,0,0,1,.55-.6,1.77,1.77,0,0,1,.64-.07,2.7,2.7,0,0,1,1,.15,1.32,1.32,0,0,1,.33.2,4.22,4.22,0,0,0,0-1.47c0-.11-.25-1.13-1-1.05a.3.3,0,0,1-.05-.6c.87-.07,1.45.71,1.62,1.53a5,5,0,0,1-1.55,4.71.29.29,0,0,1-.18.07.29.29,0,0,1-.24-.11.31.31,0,0,1,0-.43,4.23,4.23,0,0,0,1.22-1.88h0a.58.58,0,0,0-.37-.4,2.21,2.21,0,0,0-.76-.11,1.3,1.3,0,0,0-.43,0,.24.24,0,0,0-.16.15.3.3,0,0,1-.35.24A.3.3,0,0,1,1172.59,272.13Z" transform="translate(-778.64 -181.5)"/><path class="cls-18" d="M1170.85,246.31s7.34,6.08,8.09,15.54c.72,9-5,21.33-10.53,25.16" transform="translate(-778.64 -181.5)"/><path class="cls-18" d="M1163.58,245.59a14.19,14.19,0,0,0-6.8-3" transform="translate(-778.64 -181.5)"/><path class="cls-19" d="M1152.82,294.27a7.32,7.32,0,0,0,5.73-.28,21.92,21.92,0,0,0,4.89-3.29l2.15-1.74" transform="translate(-778.64 -181.5)"/><g class="cls-20"><path class="cls-21" d="M1162.41,249.47a14.27,14.27,0,0,0-10.12,1.62,25.81,25.81,0,0,0-7.76,7c-2,2.6-4,5.63-7.13,6.48" transform="translate(-778.64 -181.5)"/><path class="cls-21" d="M1158.67,246.3c-2.87-1-5.94.35-8.64,1.75a26.37,26.37,0,0,0-10,8.5" transform="translate(-778.64 -181.5)"/><path class="cls-21" d="M1167.12,251a18.27,18.27,0,0,0,9.28,15.35" transform="translate(-778.64 -181.5)"/><path class="cls-21" d="M1170.89,251.22q2.69,5.81,5.85,11.38" transform="translate(-778.64 -181.5)"/><path class="cls-21" d="M1168.75,238.51a22.13,22.13,0,0,1,14.73,10.92,37,37,0,0,1,3.62,11.7" transform="translate(-778.64 -181.5)"/><path class="cls-21" d="M1182.5,256.59a27.22,27.22,0,0,0,2.27,12.5C1188,276,1195,281,1196.88,288.44c1.36,5.31-.14,10.89.19,16.36a24.7,24.7,0,0,0,4.31,12.51" transform="translate(-778.64 -181.5)"/><path class="cls-21" d="M1181.14,272.07a45.15,45.15,0,0,0-2.82,13.39,22,22,0,0,0,3.48,13.09" transform="translate(-778.64 -181.5)"/><path class="cls-21" d="M1173.76,286.79a34.22,34.22,0,0,0-.26,8.76" transform="translate(-778.64 -181.5)"/></g><path class="cls-22" d="M1184.44,244.85c2.75,3,4.12,7.08,5.06,11.08s1.53,8.12,3,11.94c2,5.14,5.61,9.46,9.14,13.69" transform="translate(-778.64 -181.5)"/><path class="cls-23" d="M1151.1,282.89c2.37,2.24,7.09,1.54,8.58-1.46.43-.86-.86-1.62-1.3-.76a4.26,4.26,0,0,1-6.23,1.15c-.7-.66-1.76.4-1.06,1.06Z" transform="translate(-778.64 -181.5)"/><path class="cls-13" d="M1154.47,309.18a3,3,0,0,1,.6.61,20.15,20.15,0,0,1,1.86,3.83c.32.76.63,1.53,1,2.29s.38,1.24,1.21.55c1-.86,2.57-1.15,3.83-1.65a22,22,0,0,1,4.66-1.47q-1.47-3.42-2.69-6.94a57.81,57.81,0,0,0-2.08-5.59,13.9,13.9,0,0,0-3.46-4.81,40.81,40.81,0,0,0-3.78-2.45q-2.09-1.42-4.23-2.77-1.22-.77-2.46-1.52c-.67-.4-1.26-.79-2.06-.43a1.54,1.54,0,0,0-.78,1.5,4.53,4.53,0,0,0,.55,1.69,1.62,1.62,0,0,0-1.55-.06,1.21,1.21,0,0,0-.38.58,3,3,0,0,0,1,3.09c-.7-.62-1.63,1.14-1.48,1.7a5.55,5.55,0,0,0,1.67,2.71c-.77.31-.62,1.44-.37,2.05.52,1.27,1.86,2.28,2.84,3.21a13.83,13.83,0,0,0,3.73,2.63A11.55,11.55,0,0,1,1154.47,309.18Z" transform="translate(-778.64 -181.5)"/><path class="cls-13" d="M1155.12,291.2a9.23,9.23,0,0,0,.81,1.28c1.1,1.43,2.67,2.51,3.41,4.2-.12-.27-1.13-.65-1.4-.82a7.51,7.51,0,0,0-1.36-.8,6.19,6.19,0,0,1-1.07-.36c-.5-.27-1-.59-1.46-.87-.68-.38-1.33-.48-1.86-1.16a6.61,6.61,0,0,1-.92-1.84,12.86,12.86,0,0,1-1-4.42c0-.58.16-1.28.71-1.48,1.16-.41,2,1,2.32,1.92A42.06,42.06,0,0,0,1155.12,291.2Z" transform="translate(-778.64 -181.5)"/><path class="cls-13" d="M1193.9,353.56c1.58,4.29,3.47,11.44-2.3,12.82-4.66,1.11-9.71-3.06-12.74-6.11A38.49,38.49,0,0,1,1172,350a182,182,0,0,1-7-17.21c-1.09-2.93-2.19-5.87-3.38-8.76-.6-1.44-1.22-2.88-1.87-4.3-.56-1.2-1.62-2.63-1.62-4a3.38,3.38,0,0,1,.78-2.07,21.38,21.38,0,0,1,2.25-2.1,9.61,9.61,0,0,0,3-6.66c0,1.56,1.4,2.87,2.16,4.1,1.09,1.77,1.83,3.79,2.9,5.59a124.28,124.28,0,0,0,7.44,10.74c4,5.36,8,10.75,11.54,16.41,1,1.6,1.66,3.42,2.59,5.09a47.65,47.65,0,0,1,2.94,6Z" transform="translate(-778.64 -181.5)"/><path class="cls-10" d="M1193.52,421.11a100.24,100.24,0,0,0-7.59-27.31,4.21,4.21,0,0,0-2.2-2.51,4.41,4.41,0,0,0-2.26.09c-5.18,1.11-10.34,2.29-15.53,3.33-3.44.69-9.22.07-11.2,3.61a8.5,8.5,0,0,0-.68,4.44c1.15,39.84,7.39,79.39,11.65,119,1.13,10.56,2.27,21.2,3.77,31.81l31.53-.81c-1.49-14.48-1.21-29.43-1.94-44q-1.15-22.74-2.51-45.47C1195.73,449.62,1195.57,435.11,1193.52,421.11Z" transform="translate(-778.64 -181.5)"/><path class="cls-10" d="M1146.89,385c-3.15-1.39-6.66-2.54-10-1.64a8.37,8.37,0,0,0-2.85,1.34,2.83,2.83,0,0,1-.78.54c-.47.17-1.09,0-1.52.28a1.18,1.18,0,0,0-.38.53c-2,4.42-4.07,8.81-5.79,13.38-3.07,8.16-5.87,16.44-8.64,24.71q-6.24,18.63-11.76,37.48c-7.54,25.77-.16,58.33,5.49,84.16q14.39-5.05,29.2-8.8a399.18,399.18,0,0,1-4.55-44.28,49.38,49.38,0,0,1,.58-12.75,52,52,0,0,1,4.16-11,279.83,279.83,0,0,0,21-63.87,14.88,14.88,0,0,0,.33-6.55C1159.7,391.72,1152.8,387.56,1146.89,385Z" transform="translate(-778.64 -181.5)"/><path class="cls-9" d="M1155.22,597.9c-.81-.15-1.52-.39-1.55-.75a18.81,18.81,0,0,1,.18-4.65,2.58,2.58,0,0,1,.35-1.05,2.87,2.87,0,0,1,1.67-.93c2.63-.77,5.22-1.78,7.75-2.8a34.06,34.06,0,0,0,7.44-3.91,17.34,17.34,0,0,0,5-5.28c1.25-2.19.31-5,1.67-7.24a2.36,2.36,0,0,1,1.48-1.17c1.46-.27,2.54,2.08,2.78,3.2a5.74,5.74,0,0,0,.85,2.55,6.73,6.73,0,0,0,5,2.65,12.24,12.24,0,0,0,7.6-2.6c-.29.2,0,2.77.06,3.17q.08,1.78.27,3.56a53,53,0,0,1,.47,6.32c-.05,3.87-.06,4,.13,7.92,0,.2-8.78.79-11.8,1l-1,.06c-7.47.41-15,.28-22.49.22l-3.49,0A16.64,16.64,0,0,1,1155.22,597.9Z" transform="translate(-778.64 -181.5)"/><path class="cls-24" d="M1132.24,385.61a292.64,292.64,0,0,0,48.37-3.41" transform="translate(-778.64 -181.5)"/><path class="cls-24" d="M1149.58,385.12a210.76,210.76,0,0,0,5.33,43.44" transform="translate(-778.64 -181.5)"/><path class="cls-24" d="M1174,383.3q.37,1.19.72,2.39" transform="translate(-778.64 -181.5)"/><path class="cls-25" d="M1176.16,390.64a238.37,238.37,0,0,1,6.76,34.81c1.47,12.47,2.75,24,3.66,36.53,2.12,29.06.38,51.11,3.26,79.28" transform="translate(-778.64 -181.5)"/><path class="cls-24" d="M1190.12,543.82q.14,1.23.29,2.49" transform="translate(-778.64 -181.5)"/><path class="cls-26" d="M1143.39,385.51c-7.61,19.58-15.23,39.18-21.72,59.16a116.87,116.87,0,0,0-4.5,17,110.27,110.27,0,0,0-.9,21.89c.69,19.29,1.8,32.57,5.61,51.5" transform="translate(-778.64 -181.5)"/><path class="cls-24" d="M1169.27,547.69q14.83-.17,29.62-1.39" transform="translate(-778.64 -181.5)"/><path class="cls-24" d="M1110.23,538.12q13.59-3.35,26.9-7.69" transform="translate(-778.64 -181.5)"/><path class="cls-24" d="M1152.12,410.88a3.91,3.91,0,0,0,2.65-2.23,10.36,10.36,0,0,0,.82-3.48,65.75,65.75,0,0,0-.9-19.84" transform="translate(-778.64 -181.5)"/><path class="cls-13" d="M1092.5,353l.46.05a8,8,0,0,1,2.78,1.16,11.12,11.12,0,0,1,2,1.69,1.16,1.16,0,0,1,.3.42.81.81,0,0,1-.54.94,2,2,0,0,1-1.18,0,18.47,18.47,0,0,1-1.89-.76A4.56,4.56,0,0,0,1093,356a1.17,1.17,0,0,0-.36.1,32.89,32.89,0,0,1-5.13,2,11.19,11.19,0,0,1,3.15-.49,10.26,10.26,0,0,1,3.16.29,6.85,6.85,0,0,1,2,1.28c.32.26.67.68.46,1a.73.73,0,0,1-.42.28c-1.12.36-2.32-.19-3.49-.24a8.15,8.15,0,0,0-4.14,1.41c.32-.18,1.16,0,1.51.07.54.07,1.08.18,1.61.27a4.36,4.36,0,0,1,2.37,1c.6.57.93,1.51,0,1.88s-2.2,0-3.15-.08a9,9,0,0,0-3.47.3c.42-.14.89.24,1.27.36a10.59,10.59,0,0,1,1.84.62,1.77,1.77,0,0,1,1.08,1.27,1.14,1.14,0,0,1,0,.74c-.36.91-1.48.37-2.1.21a9.86,9.86,0,0,0-1.63-.27,4.12,4.12,0,0,0-2.26.25c-.38.23-1.53,2.14-1.34,2.6a21.47,21.47,0,0,1-.61-14.81c1.06-3.24,2.86-5.7,6.3-6.36a2.71,2.71,0,0,1,1.06,0,1.06,1.06,0,0,1,.7,1.6c-.4.65-1.54.88-2.19,1.09a2.4,2.4,0,0,0-.62.27c-.49.34-.74,1.67-1.34,1.79C1089.09,354,1090.66,352.93,1092.5,353Z" transform="translate(-778.64 -181.5)"/><path class="cls-19" d="M1178.36,327.17a123.5,123.5,0,0,1,10.88,15.11,41.32,41.32,0,0,1,5.85,17.52" transform="translate(-778.64 -181.5)"/><path class="cls-19" d="M1146.39,289.19s.42-1.76,4.82,1.5c0,0-2.18-5.49,0-5.84,0,0,.82-.39,1.87,1.44,1.31,2.28,1.33,5.1,3.83,7.29" transform="translate(-778.64 -181.5)"/><path class="cls-19" d="M1146.6,292s.57.52.93.52" transform="translate(-778.64 -181.5)"/><path class="cls-19" d="M1145.59,295.53a5.53,5.53,0,0,0,1,.65" transform="translate(-778.64 -181.5)"/><path class="cls-27" d="M1113.37,594.56s21.3-9.73,34.92-20.65" transform="translate(-778.64 -181.5)"/><path class="cls-27" d="M1154,593.8s25.49,2.49,41-1.41" transform="translate(-778.64 -181.5)"/><path class="cls-27" d="M1167.21,587.1s6.27,4,17-8.36" transform="translate(-778.64 -181.5)"/><path class="cls-27" d="M1120.72,583.23s14.38-5.21,10.11-16.62" transform="translate(-778.64 -181.5)"/></g></g></svg>